<?xml version="1.0" standalone="no"?>
<!DOCTYPE svg PUBLIC "-//W3C//DTD SVG 20010904//EN"
 "http://www.w3.org/TR/2001/REC-SVG-20010904/DTD/svg10.dtd">
<svg version="1.0" xmlns="http://www.w3.org/2000/svg"
 width="285.000000pt" height="284.000000pt" viewBox="0 0 285.000000 284.000000"
 preserveAspectRatio="xMidYMid meet">

<g transform="translate(0.000000,284.000000) scale(0.100000,-0.100000)"
fill="#000000" stroke="none">
<path d="M1298 2453 c-10 -3 -18 -9 -18 -15 0 -6 -11 -8 -26 -4 -16 4 -35 1
-48 -7 -11 -8 -38 -19 -58 -26 -21 -7 -38 -17 -38 -22 0 -5 -4 -8 -9 -6 -14 4
-71 -42 -71 -58 0 -8 -6 -15 -13 -15 -17 0 -77 -79 -77 -102 0 -11 -11 -34
-25 -52 -14 -18 -25 -38 -25 -45 0 -6 -10 -30 -21 -53 -14 -28 -22 -63 -23
-106 -2 -56 3 -73 36 -140 21 -42 38 -87 38 -98 0 -12 7 -38 15 -57 8 -20 15
-52 15 -71 0 -19 9 -44 20 -57 l19 -24 1 98 c0 66 5 110 16 135 14 33 27 109
26 154 -1 9 8 20 18 23 11 3 42 22 69 41 28 19 55 34 60 34 5 0 11 5 13 11 2
6 23 14 46 19 32 5 42 4 39 -4 -4 -9 9 -10 47 -5 99 14 144 28 188 59 38 27
49 30 86 24 45 -7 75 -31 150 -118 28 -33 42 -58 42 -77 0 -16 4 -29 9 -29 22
0 59 -178 61 -289 0 -11 4 -11 19 3 11 10 16 25 13 41 -2 13 4 79 13 146 10
66 15 138 12 160 -3 26 0 42 9 50 18 15 18 29 -6 98 -25 75 -95 200 -128 230
-15 13 -20 20 -12 16 8 -4 2 4 -15 19 -16 14 -36 25 -42 26 -7 0 -13 6 -13 14
0 18 -31 29 -54 20 -9 -3 -16 -13 -16 -21 0 -12 -2 -12 -16 1 -8 9 -23 16 -33
16 -9 0 -22 5 -29 12 -7 7 -12 8 -12 3 0 -4 -9 0 -20 10 -22 20 -60 28 -60 13
0 -5 -6 -6 -12 -1 -18 11 -78 13 -78 3 0 -12 -27 -6 -47 11 -10 9 -26 14 -35
12z m-128 -176 c0 -5 -7 -4 -15 3 -8 7 -15 20 -15 29 1 13 3 13 15 -3 8 -11
15 -24 15 -29z"/>
<path d="M1542 1843 c-45 -16 -70 -49 -58 -78 4 -13 10 -14 26 -5 27 14 25 4
-5 -32 -30 -36 -31 -56 -5 -101 26 -44 60 -63 88 -48 11 6 30 11 41 11 12 0
21 5 21 10 0 6 6 10 13 9 21 -3 77 22 77 35 0 6 -13 27 -29 46 -27 33 -32 35
-93 35 -60 0 -64 2 -60 20 6 27 31 45 62 45 14 0 31 5 38 12 9 9 16 7 32 -7
11 -10 23 -15 27 -12 3 4 0 7 -7 7 -7 0 -11 3 -8 6 4 3 19 -2 34 -12 21 -14
26 -15 22 -4 -7 23 -110 79 -143 79 -16 0 -49 -7 -73 -16z m98 -133 c11 -7 4
-10 -25 -9 -31 0 -36 2 -20 9 26 11 28 11 45 0z m-61 -69 c-3 -6 -10 -7 -18
-2 -7 5 -10 14 -6 21 9 14 29 -2 24 -19z m96 20 c3 -6 -4 -15 -15 -21 -22 -12
-23 -10 -14 14 7 18 20 21 29 7z"/>
<path d="M1185 1805 c-46 -16 -85 -45 -101 -76 -18 -35 -9 -38 16 -6 17 22 24
23 140 21 119 -2 121 -2 118 19 -6 45 -100 68 -173 42z"/>
<path d="M1294 1716 c-4 -10 -18 -16 -35 -16 -16 0 -28 -5 -26 -11 1 -7 -10
-15 -24 -19 -14 -4 -39 -15 -55 -25 -27 -16 -27 -16 -9 0 11 9 34 24 50 32
l30 14 -30 -6 c-64 -14 -104 -85 -47 -85 15 0 38 -3 52 -5 l25 -6 -23 11 c-13
5 -22 15 -20 22 7 21 26 20 33 -1 4 -14 15 -21 33 -22 29 -1 25 -3 -23 -15
l-30 -7 33 -7 c38 -9 92 8 92 28 0 7 4 11 9 7 18 -11 23 16 6 35 -17 18 -5 38
15 25 17 -11 11 21 -7 37 -32 27 -43 30 -49 14z m6 -86 c0 -4 -6 -10 -14 -13
-10 -4 -12 0 -9 14 5 18 23 18 23 -1z"/>
<path d="M1911 1546 c-8 -10 -8 -20 4 -42 l15 -29 0 43 c0 46 -2 49 -19 28z"/>
<path d="M1867 1510 c-3 -8 -8 -35 -11 -60 -2 -24 -10 -46 -15 -48 -6 -2 -11
-15 -11 -29 0 -31 -40 -73 -69 -73 -5 0 -7 -10 -4 -22 4 -23 4 -23 -12 -3 -17
19 -17 19 -11 -9 5 -22 2 -32 -12 -42 -12 -8 -22 -31 -26 -58 -6 -37 -10 -43
-26 -39 -21 5 -23 19 -20 98 1 33 -4 45 -30 70 -17 16 -36 30 -43 30 -7 0 -23
8 -37 18 -22 15 -23 19 -11 39 10 16 10 23 2 26 -6 2 -11 10 -11 18 0 19 -24
18 -62 -2 -30 -15 -34 -15 -64 1 -33 17 -64 15 -64 -5 0 -5 10 -10 23 -10 30
-1 109 -38 82 -39 -11 -1 -31 -4 -44 -8 -20 -5 -23 -3 -18 10 3 9 -1 18 -9 21
-25 10 -46 7 -39 -5 4 -6 13 -8 21 -5 8 3 14 -1 14 -10 0 -8 -8 -17 -17 -21
-10 -3 -28 -17 -40 -31 -19 -22 -24 -24 -38 -12 -9 7 -15 9 -14 4 2 -5 -4 -23
-13 -40 -11 -20 -15 -43 -11 -71 l5 -41 22 22 c36 40 199 69 257 47 24 -9 24
-9 -11 -25 -39 -17 -23 -21 30 -6 38 10 56 9 52 -2 -1 -5 2 -8 8 -8 5 0 10 -7
10 -15 0 -8 -4 -15 -10 -15 -5 0 -7 -6 -5 -12 3 -8 -4 -14 -19 -14 -25 -2 -41
19 -29 38 3 6 2 8 -4 5 -5 -4 -41 -9 -78 -12 -99 -8 -116 -13 -106 -33 5 -10
15 -30 22 -47 10 -24 13 -26 17 -12 2 11 10 16 18 13 7 -3 16 -1 19 3 3 5 20
4 39 -1 32 -10 33 -13 23 -35 -10 -23 -12 -24 -24 -7 -12 17 -13 17 -15 -2 0
-10 0 -27 0 -37 1 -10 -3 -15 -8 -12 -6 3 -10 14 -10 24 0 10 -7 24 -15 31
-12 10 -15 9 -16 -6 -1 -11 -1 -23 0 -29 1 -5 -6 -1 -14 10 -14 17 -17 18 -25
5 -7 -10 -8 -5 -4 18 5 26 3 32 -10 32 -9 0 -16 -6 -15 -12 1 -7 1 -22 0 -33
-1 -16 -3 -17 -11 -5 -7 12 -11 10 -19 -10 -9 -23 -10 -22 -12 15 -1 22 -2 45
-4 50 -1 6 -3 16 -3 24 -2 11 -7 10 -23 -5 -20 -18 -20 -18 -14 9 5 17 3 27
-4 27 -6 0 -11 -7 -11 -16 0 -8 -4 -13 -9 -10 -5 3 -11 -3 -14 -14 -3 -11 0
-20 6 -20 7 0 6 -4 -2 -9 -8 -5 -20 -7 -28 -4 -8 3 -13 -3 -13 -17 0 -13 -4
-19 -11 -14 -6 3 -9 19 -5 35 3 18 1 29 -6 29 -7 0 -9 13 -5 35 6 38 -9 50
-16 13 -3 -17 -5 -15 -6 9 0 19 -11 43 -26 59 -14 15 -25 36 -25 48 0 14 -3
17 -8 9 -15 -24 -71 116 -74 185 -1 37 -1 36 -7 -8 -4 -25 -3 -49 1 -54 4 -6
8 -19 8 -30 0 -12 8 -54 17 -95 12 -51 23 -75 34 -78 13 -4 17 -16 16 -51 0
-30 10 -69 27 -106 14 -32 26 -67 26 -78 0 -20 22 -48 38 -48 6 0 12 -7 16
-15 3 -8 10 -15 16 -15 6 0 23 -11 38 -25 46 -43 121 -54 145 -21 5 7 11 5 18
-7 7 -12 21 -18 42 -17 58 3 63 1 41 -16 -10 -8 -13 -13 -6 -9 7 4 20 1 29 -7
9 -7 14 -8 10 -2 -5 8 6 10 37 7 38 -5 46 -2 55 16 9 15 19 20 36 17 20 -4 26
0 31 21 7 25 8 25 21 7 8 -10 17 -19 21 -19 17 0 -9 -34 -103 -130 -27 -28
-59 -63 -69 -76 -10 -13 29 24 87 83 58 59 112 119 120 135 8 15 15 59 16 97
0 38 5 74 10 80 23 28 61 107 61 126 0 11 9 38 20 60 11 21 17 46 14 54 -8 21
16 127 27 120 9 -5 39 18 39 32 0 4 -7 16 -17 26 -9 10 -19 35 -23 56 -4 22
-9 31 -13 22z m-359 -202 c7 -6 15 -8 19 -5 10 11 33 -14 33 -35 0 -17 -3 -17
-35 7 -32 25 -38 26 -102 19 -49 -5 -77 -14 -100 -32 l-33 -24 0 26 c0 15 4
25 8 22 5 -3 22 3 38 13 33 20 151 26 172 9z m-35 -45 c-7 -2 -19 -2 -25 0 -7
3 -2 5 12 5 14 0 19 -2 13 -5z m248 -426 c-8 -8 -11 -7 -11 4 0 20 13 34 18
19 3 -7 -1 -17 -7 -23z m-411 3 c0 -5 -7 -7 -15 -4 -8 4 -15 8 -15 10 0 2 7 4
15 4 8 0 15 -4 15 -10z"/>
<path d="M920 1496 c0 -9 5 -16 10 -16 6 0 10 4 10 9 0 6 -4 13 -10 16 -5 3
-10 -1 -10 -9z"/>
<path d="M1080 1261 c0 -6 5 -13 10 -16 6 -3 10 1 10 9 0 9 -4 16 -10 16 -5 0
-10 -4 -10 -9z"/>
<path d="M1032 788 c-12 -13 -43 -49 -69 -81 -26 -32 -60 -65 -77 -74 -17 -9
-43 -26 -58 -38 -15 -13 -49 -31 -75 -41 -26 -9 -56 -24 -65 -32 -10 -8 -24
-12 -32 -9 -8 3 -52 -10 -98 -29 -46 -20 -90 -38 -98 -41 -8 -3 -37 -16 -65
-28 -27 -12 -68 -25 -90 -29 -58 -11 -75 -23 -76 -54 0 -24 -1 -25 -9 -7 -7
18 -8 17 -15 -10 -3 -16 -11 -40 -17 -52 -6 -12 -8 -32 -4 -45 6 -22 -19 -112
-50 -183 l-13 -30 526 -3 c289 -1 528 0 531 3 3 2 -7 64 -22 137 -14 73 -26
146 -26 161 0 16 -6 49 -14 75 -20 65 -49 250 -56 350 l-5 83 -23 -23z"/>
<path d="M1791 633 c2 -148 4 -173 14 -149 11 27 12 25 18 -39 4 -37 4 -152 0
-256 l-6 -189 482 0 482 0 -7 23 c-3 12 -17 51 -31 87 -13 36 -32 123 -43 193
-19 127 -29 157 -56 157 -8 0 -14 4 -14 9 0 11 -37 20 -108 27 -96 8 -121 14
-211 51 -47 19 -114 43 -147 53 -34 10 -91 32 -127 49 -36 17 -72 31 -80 31
-9 0 -47 29 -86 65 -39 36 -73 65 -76 65 -3 0 -5 -80 -4 -177z"/>
<path d="M1420 741 c-33 -6 -34 -7 -13 -19 18 -10 25 -9 45 8 24 21 23 21 -32
11z"/>
<path d="M1445 547 c-106 -15 -162 -55 -252 -179 -39 -53 -40 -58 -10 -51 32
8 47 22 40 38 -9 25 55 -13 82 -48 22 -30 52 -122 35 -112 -9 6 -32 -44 -25
-55 3 -5 1 -10 -5 -12 -5 -1 -13 -31 -16 -64 l-7 -61 152 1 c140 1 151 2 151
20 0 16 -2 17 -17 5 -15 -13 -15 -12 -2 9 9 14 10 25 4 30 -5 4 -10 14 -10 22
0 8 -5 14 -11 13 -7 -1 -11 5 -10 15 0 9 -3 16 -9 15 -5 -1 -11 8 -11 20 -1
12 -7 40 -12 61 -8 31 -7 48 4 75 15 37 79 104 102 107 26 4 42 13 42 23 0 14
-57 77 -92 103 -25 17 -32 18 -40 7 -8 -11 -9 -11 -5 3 8 22 -7 25 -78 15z
m-58 -209 c-3 -8 -6 -5 -6 6 -1 11 2 17 5 13 3 -3 4 -12 1 -19z m20 -110 c-3
-8 -6 -5 -6 6 -1 11 2 17 5 13 3 -3 4 -12 1 -19z m67 14 c3 -5 -1 -9 -9 -9 -8
0 -12 4 -9 9 3 4 7 8 9 8 2 0 6 -4 9 -8z m-87 -88 c-3 -3 -12 -4 -19 -1 -8 3
-5 6 6 6 11 1 17 -2 13 -5z m0 -50 c-3 -3 -12 -4 -19 -1 -8 3 -5 6 6 6 11 1
17 -2 13 -5z m3 -48 c0 -2 -7 -6 -15 -10 -8 -3 -15 -1 -15 4 0 6 7 10 15 10 8
0 15 -2 15 -4z"/>
<path d="M1781 434 c0 -11 3 -14 6 -6 3 7 2 16 -1 19 -3 4 -6 -2 -5 -13z"/>
</g>
</svg>
